<svg xmlns="http://www.w3.org/2000/svg" version="1.1" xmlns:xlink="http://www.w3.org/1999/xlink" xmlns:svgjs="http://svgjs.dev/svgjs" width="128" height="128" viewBox="0 0 128 128"><g transform="matrix(0.8046875,0,0,0.8046875,12.760752631578946,12.760752631578946)"><svg viewBox="0 0 95 95" data-background-color="#ffffff" preserveAspectRatio="xMidYMid meet" height="128" width="128" xmlns="http://www.w3.org/2000/svg" xmlns:xlink="http://www.w3.org/1999/xlink"><g id="tight-bounds" transform="matrix(1,0,0,1,-0.24049999999999727,-0.24049999999999727)"><svg viewBox="0 0 95.481 95.481" height="95.481" width="95.481"><g><svg viewBox="0 0 95.481 95.481" height="95.481" width="95.481"><g><svg viewBox="0 0 95.481 95.481" height="95.481" width="95.481"><g id="textblocktransform"><svg viewBox="0 0 95.481 95.481" height="95.481" width="95.481" id="textblock"><g><svg viewBox="0 0 95.481 95.481" height="95.481" width="95.481"><g><svg viewBox="0 0 95.481 95.481" height="95.481" width="95.481"><g><svg xmlns="http://www.w3.org/2000/svg" xmlns:xlink="http://www.w3.org/1999/xlink" version="1.1" x="0" y="0" viewBox="1 1 64 64" enable-background="new 0 0 66 66" xml:space="preserve" height="95.481" width="95.481" class="icon-icon-0" data-fill-palette-color="accent" id="icon-0"><g fill="#ba3b0a" data-fill-palette-color="accent"><g fill="#ba3b0a" data-fill-palette-color="accent"><path d="M34.7 33.3c0.2 0.3 0.2 0.6 0.2 0.9l-2.7 9.2 8.8-12.6H33c-0.5 0-1-0.4-1-1l-0.3-9.2-6.8 12.3h9C34.2 32.9 34.5 33 34.7 33.3z" fill="#ba3b0a" data-fill-palette-color="accent"></path></g><g fill="#ba3b0a" data-fill-palette-color="accent"><path d="M13.6 52.4h38.8V13.6H13.6V52.4zM22.4 33.4l9.3-16.9c0.2-0.4 0.7-0.6 1.1-0.5 0.4 0.1 0.8 0.5 0.8 0.9L34 28.8h8.8c0.4 0 0.7 0.2 0.9 0.5 0.2 0.3 0.1 0.7-0.1 1L30.2 49.6C29.9 50 29.4 50.2 29 50c-0.4-0.2-0.7-0.7-0.5-1.2l4.1-13.9h-9.3c-0.4 0-0.7-0.2-0.9-0.5C22.2 34.1 22.2 33.7 22.4 33.4z" fill="#ba3b0a" data-fill-palette-color="accent"></path></g><g fill="#ba3b0a" data-fill-palette-color="accent"><path d="M64 19.6c0.6 0 1-0.4 1-1v-6.9c0-0.5-0.4-1-1-1h-5V8c0-0.6-0.5-1-1-1h-2.7V2c0-0.6-0.4-1-1-1h-6.9c-0.5 0-1 0.4-1 1v5h-2.9V2c0-0.6-0.4-1-1-1h-6.9c-0.5 0-1 0.4-1 1v5h-2.9V2c0-0.6-0.5-1-1-1h-6.9c-0.5 0-1 0.4-1 1v5h-2.9V2c0-0.6-0.4-1-1-1h-6.9c-0.6 0-1 0.4-1 1v5H8C7.5 7 7 7.4 7 8v2.7H2c-0.5 0-1 0.5-1 1v6.9c0 0.6 0.4 1 1 1h5v2.9H2c-0.5 0-1 0.4-1 1v6.9c0 0.6 0.4 1 1 1h5v2.9H2c-0.5 0-1 0.4-1 1v6.9c0 0.6 0.4 1 1 1h5v2.9H2c-0.5 0-1 0.5-1 1v6.9c0 0.6 0.4 1 1 1h5V58c0 0.6 0.5 1 1 1h2.7v5c0 0.5 0.4 1 1 1h6.9c0.6 0 1-0.4 1-1v-5h2.9v5c0 0.5 0.5 1 1 1h6.9c0.5 0 1-0.4 1-1v-5h2.9v5c0 0.5 0.5 1 1 1h6.9c0.6 0 1-0.4 1-1v-5h2.9v5c0 0.5 0.5 1 1 1h6.9c0.6 0 1-0.4 1-1v-5H58c0.5 0 1-0.4 1-1v-2.7h5c0.6 0 1-0.4 1-1v-6.9c0-0.5-0.4-1-1-1h-5v-2.9h5c0.6 0 1-0.4 1-1v-6.9c0-0.6-0.4-1-1-1h-5v-2.9h5c0.6 0 1-0.4 1-1v-6.9c0-0.6-0.4-1-1-1h-5v-2.9H64zM54.4 53.4c0 0.6-0.4 1-1 1H12.6c-0.6 0-1-0.4-1-1V12.6c0-0.6 0.4-1 1-1h40.8c0.6 0 1 0.4 1 1V53.4z" fill="#ba3b0a" data-fill-palette-color="accent"></path></g></g></svg></g></svg></g></svg></g></svg></g></svg></g></svg></g><defs></defs></svg><rect width="95.481" height="95.481" fill="none" stroke="none" visibility="hidden"></rect></g></svg></g></svg>